<svg width="135" height="40" viewBox="0 0 135 40" fill="none" xmlns="http://www.w3.org/2000/svg">
<g clip-path="url(#clip0_10_332)">
<path d="M130.197 40H4.729C3.47499 39.9971 2.27324 39.4974 1.38689 38.6103C0.500547 37.7232 0.00184854 36.521 0 35.267L0 4.726C0.00185325 3.47264 0.500776 2.27118 1.38732 1.3852C2.27386 0.499218 3.47564 0.00105789 4.729 0L130.197 0C132.803 0 135 2.12 135 4.726V35.267C135 37.872 132.803 40 130.197 40Z" fill="#A6A6A6"/>
<path d="M134.033 35.268C134.033 35.7713 133.933 36.2697 133.741 36.7346C133.548 37.1996 133.266 37.6219 132.909 37.9776C132.553 38.3334 132.131 38.6154 131.666 38.8076C131.2 38.9999 130.702 39.0985 130.199 39.098H4.72963C3.71269 39.0991 2.73698 38.6962 2.01705 37.978C1.29713 37.2597 0.89195 36.285 0.890625 35.268V4.72501C0.89195 3.70762 1.29697 2.73234 2.01675 2.01331C2.73653 1.29428 3.71223 0.890279 4.72963 0.890015H130.198C130.701 0.890015 131.2 0.989217 131.665 1.18196C132.13 1.3747 132.553 1.6572 132.909 2.01332C133.265 2.36945 133.547 2.79222 133.74 3.2575C133.933 3.72278 134.032 4.22144 134.032 4.72501L134.033 35.268Z" fill="black"/>
<path d="M30.1271 19.784C30.0981 16.561 32.7661 14.993 32.8881 14.92C31.3771 12.717 29.0351 12.416 28.2121 12.392C26.2451 12.185 24.3371 13.569 23.3351 13.569C22.3131 13.569 20.7701 12.412 19.1071 12.446C16.9671 12.479 14.9651 13.718 13.8671 15.642C11.6011 19.565 13.2911 25.33 15.4621 28.501C16.5481 30.054 17.8171 31.788 19.4781 31.727C21.1031 31.66 21.7101 30.691 23.6711 30.691C25.6141 30.691 26.1841 31.727 27.8781 31.688C29.6221 31.66 30.7201 30.128 31.7681 28.561C33.0231 26.781 33.5271 25.028 33.5471 24.938C33.5061 24.924 30.1601 23.647 30.1271 19.784ZM26.9271 10.306C27.8011 9.21304 28.3991 7.72604 28.2331 6.21704C26.9681 6.27304 25.3861 7.09204 24.4751 8.16104C23.6691 9.10304 22.9491 10.647 23.1351 12.099C24.5561 12.205 26.0151 11.382 26.9271 10.306ZM53.6441 31.504H51.3731L50.1291 27.595H45.8051L44.6201 31.504H42.4091L46.6931 18.196H49.3391L53.6441 31.504ZM49.7541 25.955L48.6291 22.48C48.5101 22.125 48.2871 21.289 47.9581 19.973H47.9181C47.7186 20.8115 47.5079 21.6472 47.2861 22.48L46.1811 25.955H49.7541ZM64.6611 26.588C64.6611 28.22 64.2201 29.51 63.3381 30.457C62.5481 31.3 61.5671 31.721 60.3961 31.721C59.1321 31.721 58.2241 31.267 57.6711 30.359H57.6311V35.414H55.4991V25.067C55.4991 24.041 55.4721 22.988 55.4201 21.908H57.2951L57.4141 23.429H57.4541C58.1651 22.283 59.2441 21.711 60.6921 21.711C61.8241 21.711 62.7691 22.158 63.5251 23.053C64.2831 23.949 64.6611 25.127 64.6611 26.588ZM62.4891 26.666C62.4891 25.732 62.2791 24.962 61.8571 24.356C61.3961 23.724 60.7771 23.408 60.0011 23.408C59.4751 23.408 58.9971 23.584 58.5701 23.931C58.1421 24.281 57.8621 24.738 57.7311 25.304C57.6651 25.568 57.6321 25.784 57.6321 25.954V27.554C57.6321 28.252 57.8461 28.841 58.2741 29.322C58.7021 29.803 59.2581 30.043 59.9421 30.043C60.7451 30.043 61.3701 29.733 61.8171 29.115C62.2651 28.496 62.4891 27.68 62.4891 26.666ZM75.6981 26.588C75.6981 28.22 75.2571 29.51 74.3741 30.457C73.5851 31.3 72.6041 31.721 71.4331 31.721C70.1691 31.721 69.2611 31.267 68.7091 30.359H68.6691V35.414H66.5371V25.067C66.5371 24.041 66.5101 22.988 66.4581 21.908H68.3331L68.4521 23.429H68.4921C69.2021 22.283 70.2811 21.711 71.7301 21.711C72.8611 21.711 73.8061 22.158 74.5641 23.053C75.3191 23.949 75.6981 25.127 75.6981 26.588ZM73.5261 26.666C73.5261 25.732 73.3151 24.962 72.8931 24.356C72.4321 23.724 71.8151 23.408 71.0381 23.408C70.514 23.4079 70.0067 23.5931 69.6061 23.931C69.1781 24.281 68.8991 24.738 68.7681 25.304C68.7031 25.568 68.6691 25.784 68.6691 25.954V27.554C68.6691 28.252 68.8831 28.841 69.3091 29.322C69.7371 29.802 70.2931 30.043 70.9791 30.043C71.7821 30.043 72.4071 29.733 72.8541 29.115C73.3021 28.496 73.5261 27.68 73.5261 26.666ZM88.0381 27.772C88.0381 28.904 87.6451 29.825 86.8561 30.536C85.9891 31.313 84.7821 31.701 83.2311 31.701C81.7991 31.701 80.6511 31.425 79.7821 30.872L80.2761 29.095C81.2121 29.661 82.2391 29.945 83.3581 29.945C84.1611 29.945 84.7861 29.763 85.2351 29.401C85.6821 29.039 85.9051 28.553 85.9051 27.947C85.9051 27.407 85.7211 26.952 85.3521 26.583C84.9851 26.214 84.3721 25.871 83.5161 25.554C81.1861 24.685 80.0221 23.412 80.0221 21.738C80.0221 20.644 80.4301 19.747 81.2471 19.049C82.0611 18.35 83.1471 18.001 84.5051 18.001C85.7161 18.001 86.7221 18.212 87.5251 18.633L86.9921 20.371C86.2421 19.963 85.3941 19.759 84.4451 19.759C83.6951 19.759 83.1091 19.944 82.6891 20.312C82.5188 20.4627 82.383 20.6484 82.291 20.8563C82.199 21.0643 82.153 21.2897 82.1561 21.517C82.1561 22.043 82.3591 22.478 82.7671 22.82C83.1221 23.136 83.7671 23.478 84.7031 23.847C85.8481 24.308 86.6891 24.847 87.2301 25.465C87.7691 26.081 88.0381 26.852 88.0381 27.772ZM95.0871 23.508H92.7371V28.167C92.7371 29.352 93.1511 29.944 93.9811 29.944C94.3621 29.944 94.6781 29.911 94.9281 29.845L94.9871 31.464C94.5671 31.621 94.0141 31.7 93.3291 31.7C92.4871 31.7 91.8291 31.443 91.3541 30.93C90.8811 30.416 90.6431 29.554 90.6431 28.343V23.506H89.2431V21.906H90.6431V20.149L92.7371 19.517V21.906H95.0871V23.508ZM105.69 26.627C105.69 28.102 105.268 29.313 104.426 30.26C103.543 31.235 102.371 31.721 100.91 31.721C99.5021 31.721 98.3811 31.254 97.5451 30.32C96.7091 29.386 96.2911 28.207 96.2911 26.786C96.2911 25.299 96.7211 24.081 97.5841 23.134C98.4451 22.186 99.6071 21.712 101.068 21.712C102.476 21.712 103.609 22.179 104.464 23.114C105.282 24.021 105.69 25.192 105.69 26.627ZM103.478 26.696C103.478 25.811 103.289 25.052 102.906 24.419C102.459 23.653 101.82 23.271 100.992 23.271C100.135 23.271 99.4841 23.654 99.0371 24.419C98.6541 25.053 98.4651 25.824 98.4651 26.736C98.4651 27.621 98.6541 28.38 99.0371 29.012C99.4981 29.778 100.142 30.16 100.973 30.16C101.787 30.16 102.426 29.77 102.887 28.992C103.28 28.347 103.478 27.58 103.478 26.696ZM112.62 23.783C112.398 23.743 112.173 23.7232 111.948 23.724C111.198 23.724 110.618 24.007 110.21 24.574C109.855 25.074 109.677 25.706 109.677 26.469V31.504H107.546L107.566 24.93C107.566 23.824 107.539 22.817 107.486 21.909H109.343L109.421 23.745H109.48C109.705 23.114 110.06 22.606 110.546 22.225C110.991 21.8921 111.531 21.7118 112.087 21.711C112.284 21.711 112.462 21.725 112.62 21.75V23.783ZM122.155 26.252C122.161 26.5761 122.134 26.9 122.077 27.219H115.681C115.706 28.167 116.015 28.892 116.609 29.392C117.148 29.839 117.845 30.063 118.701 30.063C119.648 30.063 120.512 29.912 121.289 29.609L121.623 31.089C120.715 31.485 119.643 31.682 118.406 31.682C116.918 31.682 115.75 31.244 114.9 30.369C114.052 29.494 113.627 28.319 113.627 26.845C113.627 25.398 114.022 24.193 114.813 23.232C115.641 22.206 116.76 21.693 118.168 21.693C119.551 21.693 120.598 22.206 121.309 23.232C121.872 24.047 122.155 25.055 122.155 26.252ZM120.122 25.699C120.136 25.067 119.997 24.521 119.708 24.06C119.339 23.467 118.772 23.171 118.009 23.171C117.312 23.171 116.745 23.46 116.312 24.04C115.957 24.501 115.746 25.054 115.681 25.698H120.122V25.699ZM49.0491 10.009C49.0491 11.186 48.6961 12.072 47.9911 12.667C47.3381 13.216 46.4101 13.491 45.2081 13.491C44.6121 13.491 44.1021 13.465 43.6751 13.413V6.98204C44.2321 6.89204 44.8321 6.84604 45.4801 6.84604C46.6251 6.84604 47.4881 7.09504 48.0701 7.59304C48.7221 8.15604 49.0491 8.96104 49.0491 10.009ZM47.9441 10.038C47.9441 9.27504 47.7421 8.69004 47.3381 8.28204C46.9341 7.87504 46.3441 7.67104 45.5671 7.67104C45.2371 7.67104 44.9561 7.69304 44.7231 7.73904V12.628C44.8521 12.648 45.0881 12.657 45.4311 12.657C46.2331 12.657 46.8521 12.434 47.2881 11.988C47.7241 11.542 47.9441 10.892 47.9441 10.038ZM54.9081 11.037C54.9081 11.762 54.7011 12.356 54.2871 12.822C53.8531 13.301 53.2781 13.54 52.5601 13.54C51.8681 13.54 51.3171 13.311 50.9061 12.851C50.4961 12.392 50.2911 11.813 50.2911 11.115C50.2911 10.385 50.5021 9.78604 50.9261 9.32104C51.3501 8.85604 51.9201 8.62304 52.6381 8.62304C53.3301 8.62304 53.8861 8.85204 54.3071 9.31104C54.7071 9.75704 54.9081 10.333 54.9081 11.037ZM53.8211 11.071C53.8211 10.636 53.7271 10.263 53.5401 9.95204C53.3201 9.57604 53.0071 9.38804 52.6001 9.38804C52.1791 9.38804 51.8591 9.57604 51.6391 9.95204C51.4511 10.263 51.3581 10.642 51.3581 11.09C51.3581 11.525 51.4521 11.898 51.6391 12.209C51.8661 12.585 52.1821 12.773 52.5901 12.773C52.9901 12.773 53.3041 12.582 53.5301 12.199C53.7241 11.882 53.8211 11.506 53.8211 11.071ZM62.7641 8.71904L61.2891 13.433H60.3291L59.7181 11.386C59.5658 10.8852 59.4393 10.3768 59.3391 9.86304H59.3201C59.2297 10.379 59.1031 10.8879 58.9411 11.386L58.2921 13.433H57.3211L55.9341 8.71904H57.0111L57.5441 10.96C57.6731 11.49 57.7791 11.995 57.8641 12.473H57.8831C57.9611 12.079 58.0901 11.577 58.2721 10.97L58.9411 8.72004H59.7951L60.4361 10.922C60.5911 11.459 60.7171 11.976 60.8141 12.474H60.8431C60.9141 11.989 61.0211 11.472 61.1631 10.922L61.7351 8.72004H62.7641V8.71904ZM68.1971 13.433H67.1491V10.733C67.1491 9.90104 66.8331 9.48504 66.1991 9.48504C66.0551 9.48081 65.9121 9.50952 65.7809 9.56896C65.6497 9.6284 65.5339 9.71701 65.4421 9.82804C65.2501 10.0531 65.1467 10.3403 65.1511 10.636V13.432H64.1031V10.066C64.1031 9.65204 64.0901 9.20304 64.0651 8.71704H64.9861L65.0351 9.45404H65.0641C65.1861 9.22504 65.3681 9.03604 65.6071 8.88504C65.8911 8.70904 66.2091 8.62004 66.5571 8.62004C66.9971 8.62004 67.3631 8.76204 67.6541 9.04704C68.0161 9.39604 68.1971 9.91704 68.1971 10.609V13.433ZM71.0871 13.433H70.0401V6.55604H71.0871V13.433ZM77.2571 11.037C77.2571 11.762 77.0501 12.356 76.6361 12.822C76.2021 13.301 75.6261 13.54 74.9091 13.54C74.2161 13.54 73.6651 13.311 73.2551 12.851C72.8451 12.392 72.6401 11.813 72.6401 11.115C72.6401 10.385 72.8511 9.78604 73.2751 9.32104C73.6991 8.85604 74.2691 8.62304 74.9861 8.62304C75.6791 8.62304 76.2341 8.85204 76.6561 9.31104C77.0561 9.75704 77.2571 10.333 77.2571 11.037ZM76.1691 11.071C76.1691 10.636 76.0751 10.263 75.8881 9.95204C75.6691 9.57604 75.3551 9.38804 74.9491 9.38804C74.5271 9.38804 74.2071 9.57604 73.9881 9.95204C73.8001 10.263 73.7071 10.642 73.7071 11.09C73.7071 11.525 73.8011 11.898 73.9881 12.209C74.2151 12.585 74.5311 12.773 74.9391 12.773C75.3391 12.773 75.6521 12.582 75.8781 12.199C76.0731 11.882 76.1691 11.506 76.1691 11.071ZM82.3291 13.433H81.3881L81.3101 12.89H81.2811C80.9591 13.323 80.5001 13.54 79.9041 13.54C79.4591 13.54 79.0991 13.397 78.8281 13.113C78.7064 12.9852 78.6111 12.8346 78.5478 12.6699C78.4844 12.5051 78.4543 12.3295 78.4591 12.153C78.4591 11.577 78.6991 11.138 79.1821 10.834C79.6641 10.53 80.3421 10.381 81.2151 10.388V10.3C81.2151 9.67904 80.8891 9.36904 80.2361 9.36904C79.7711 9.36904 79.3611 9.48604 79.0071 9.71804L78.7941 9.03004C79.2321 8.75904 79.7731 8.62304 80.4111 8.62304C81.6431 8.62304 82.2611 9.27304 82.2611 10.573V12.309C82.2611 12.78 82.2841 13.155 82.3291 13.433ZM81.2411 11.813V11.086C80.0851 11.066 79.5071 11.383 79.5071 12.036C79.5071 12.282 79.5731 12.466 79.7081 12.589C79.8489 12.7138 80.0322 12.7797 80.2201 12.773C80.4501 12.773 80.6651 12.7 80.8611 12.555C80.98 12.4716 81.0768 12.3604 81.143 12.2311C81.2092 12.1018 81.2429 11.9583 81.2411 11.813ZM88.2841 13.433H87.3541L87.3051 12.676H87.2761C86.9791 13.252 86.4731 13.54 85.7621 13.54C85.1941 13.54 84.7211 13.317 84.3461 12.871C83.9711 12.425 83.7841 11.846 83.7841 11.135C83.7841 10.372 83.9871 9.75404 84.3951 9.28204C84.7901 8.84204 85.2741 8.62204 85.8501 8.62204C86.4831 8.62204 86.9261 8.83504 87.1781 9.26204H87.1981V6.55604H88.2471V12.163C88.2471 12.622 88.2591 13.045 88.2841 13.433ZM87.1981 11.445V10.659C87.2079 10.4778 87.1763 10.2966 87.1056 10.1294C87.0349 9.96218 86.927 9.81329 86.7901 9.69404C86.5968 9.52372 86.3467 9.43202 86.0891 9.43704C85.6981 9.43704 85.3921 9.59204 85.1671 9.90304C84.9441 10.214 84.8311 10.611 84.8311 11.096C84.8311 11.562 84.9381 11.94 85.1531 12.231C85.3801 12.541 85.6861 12.696 86.0691 12.696C86.4131 12.696 86.6881 12.567 86.8971 12.308C87.0991 12.069 87.1981 11.781 87.1981 11.445ZM97.2471 11.037C97.2471 11.762 97.0401 12.356 96.6261 12.822C96.1921 13.301 95.6181 13.54 94.8991 13.54C94.2081 13.54 93.6571 13.311 93.2451 12.851C92.8351 12.392 92.6301 11.813 92.6301 11.115C92.6301 10.385 92.8411 9.78604 93.2651 9.32104C93.6891 8.85604 94.2591 8.62304 94.9781 8.62304C95.6691 8.62304 96.2261 8.85204 96.6461 9.31104C97.0461 9.75704 97.2471 10.333 97.2471 11.037ZM96.1611 11.071C96.1611 10.636 96.0671 10.263 95.8801 9.95204C95.6591 9.57604 95.3471 9.38804 94.9391 9.38804C94.5191 9.38804 94.1991 9.57604 93.9781 9.95204C93.7901 10.263 93.6971 10.642 93.6971 11.09C93.6971 11.525 93.7911 11.898 93.9781 12.209C94.2051 12.585 94.5211 12.773 94.9291 12.773C95.3291 12.773 95.6441 12.582 95.8701 12.199C96.0631 11.882 96.1611 11.506 96.1611 11.071ZM102.882 13.433H101.835V10.733C101.835 9.90104 101.519 9.48504 100.884 9.48504C100.573 9.48504 100.322 9.59904 100.128 9.82804C99.9341 10.057 99.8371 10.327 99.8371 10.636V13.432H98.7881V10.066C98.7881 9.65204 98.7761 9.20304 98.7511 8.71704H99.6711L99.7201 9.45404H99.7491C99.8774 9.2203 100.065 9.02415 100.292 8.88504C100.577 8.70904 100.894 8.62004 101.243 8.62004C101.682 8.62004 102.048 8.76204 102.339 9.04704C102.702 9.39604 102.882 9.91704 102.882 10.609V13.433ZM109.935 9.50404H108.781V11.794C108.781 12.376 108.986 12.667 109.392 12.667C109.58 12.667 109.736 12.651 109.859 12.618L109.886 13.413C109.679 13.491 109.407 13.53 109.072 13.53C108.658 13.53 108.336 13.404 108.103 13.152C107.869 12.9 107.753 12.476 107.753 11.881V9.50404H107.064V8.71904H107.753V7.85504L108.78 7.54504V8.71804H109.934V9.50404H109.935ZM115.483 13.433H114.434V10.753C114.434 9.90804 114.118 9.48504 113.485 9.48504C112.999 9.48504 112.667 9.73004 112.485 10.22C112.451 10.3427 112.434 10.4697 112.436 10.597V13.432H111.389V6.55604H112.436V9.39704H112.456C112.786 8.88004 113.259 8.62204 113.872 8.62204C114.306 8.62204 114.665 8.76404 114.95 9.04904C115.305 9.40404 115.483 9.93204 115.483 10.63V13.433ZM121.206 10.853C121.206 11.041 121.192 11.199 121.167 11.328H118.024C118.038 11.794 118.188 12.149 118.479 12.395C118.745 12.615 119.088 12.725 119.508 12.725C119.973 12.725 120.397 12.651 120.779 12.502L120.943 13.23C120.496 13.424 119.97 13.521 119.361 13.521C118.631 13.521 118.056 13.306 117.64 12.876C117.222 12.446 117.015 11.869 117.015 11.145C117.015 10.434 117.208 9.84204 117.597 9.37004C118.003 8.86604 118.552 8.61404 119.245 8.61404C119.923 8.61404 120.438 8.86604 120.786 9.37004C121.067 9.77004 121.206 10.265 121.206 10.853ZM120.206 10.582C120.221 10.2994 120.15 10.0189 120.003 9.77704C119.821 9.48604 119.544 9.34004 119.169 9.34004C119.006 9.33726 118.844 9.37476 118.699 9.44923C118.553 9.5237 118.428 9.63285 118.335 9.76704C118.157 10.0043 118.05 10.2866 118.024 10.582H120.206Z" fill="white"/>
</g>
<defs>
<clipPath id="clip0_10_332">
<rect width="135" height="40" fill="white"/>
</clipPath>
</defs>
</svg>
