<svg width="134" height="22" viewBox="0 0 134 22" fill="none" xmlns="http://www.w3.org/2000/svg">
<path d="M70.148 0.000999987H85.239V3.647H74.224V8.862H84.946V12.399H74.224V17.687H85.239V21.334H70.148V0.000999987ZM126.249 21.735C130.876 21.735 133.483 19.547 133.483 16.52C133.483 14.369 131.94 12.764 128.709 12.071L125.294 11.378C123.311 11.014 122.687 10.649 122.687 9.92C122.687 8.972 123.642 8.388 125.405 8.388C127.314 8.388 128.71 8.898 129.114 10.648H133.116C132.896 7.367 130.509 5.178 125.662 5.178C121.476 5.178 118.538 6.893 118.538 10.211C118.538 12.509 120.154 14.004 123.642 14.733L127.461 15.608C128.966 15.9 129.37 16.301 129.37 16.921C129.37 17.906 128.232 18.526 126.396 18.526C124.083 18.526 122.761 18.016 122.247 16.265H118.207C118.795 19.547 121.255 21.735 126.249 21.735ZM117.125 17.76H114.114C113.196 17.76 112.608 17.359 112.608 16.52V9.154H117.125V5.58H112.608V1.095H108.569V5.58H105.521V9.154H108.569V17.541C108.569 19.656 110.074 21.333 112.792 21.333H117.125V17.76ZM103.816 5.58V21.334H99.814V19.912C98.3929 21.0991 96.5976 21.7449 94.746 21.735C90.009 21.735 86.301 18.052 86.301 13.457C86.301 8.862 90.01 5.179 94.746 5.179C96.5977 5.16941 98.3931 5.81557 99.814 7.003V5.581L103.816 5.58ZM99.887 13.457C99.8927 12.8236 99.7723 12.1953 99.5326 11.6089C99.293 11.0225 98.9389 10.4897 98.4912 10.0416C98.0435 9.59352 97.511 9.23906 96.9248 8.99892C96.3386 8.75879 95.7104 8.6378 95.077 8.643C94.4444 8.64102 93.8177 8.76421 93.233 9.00548C92.6483 9.24675 92.1171 9.60134 91.67 10.0488C91.2229 10.4963 90.8687 11.0278 90.6279 11.6127C90.3872 12.1977 90.2645 12.8245 90.267 13.457C90.2646 14.0895 90.3874 14.7162 90.6282 15.301C90.8691 15.8858 91.2232 16.4172 91.6703 16.8645C92.1174 17.3119 92.6486 17.6664 93.2333 17.9076C93.8179 18.1488 94.4445 18.272 95.077 18.27C97.757 18.27 99.887 16.155 99.887 13.457ZM8.501 18.834C11.477 18.834 13.778 16.548 13.778 13.165V0H17.001V21.332H13.809V19.352C12.367 20.844 10.372 21.698 8.132 21.698C3.53 21.698 0 18.376 0 13.348V0.000999987H3.223V13.166C3.223 16.609 5.493 18.834 8.501 18.834ZM19.394 21.332H22.463V19.382C23.194 20.1187 24.064 20.703 25.0226 21.1007C25.9811 21.4984 27.0092 21.7018 28.047 21.699C32.65 21.699 36.271 18.072 36.271 13.592C36.271 9.082 32.651 5.456 28.047 5.456C27.0137 5.45303 25.9902 5.65635 25.0365 6.05404C24.0828 6.45173 23.2181 7.0358 22.493 7.772V0.000999987H19.393V21.333L19.394 21.332ZM27.833 18.986C27.1234 18.9892 26.4203 18.8519 25.764 18.582C25.1077 18.3121 24.5114 17.9151 24.0093 17.4136C23.5073 16.9122 23.1094 16.3164 22.8387 15.6605C22.568 15.0046 22.4297 14.3016 22.432 13.592C22.4298 12.8825 22.5679 12.1796 22.8386 11.5238C23.1092 10.8679 23.507 10.2721 24.009 9.77072C24.5109 9.26932 25.1072 8.87221 25.7633 8.60229C26.4194 8.33236 27.1225 8.19496 27.832 8.198C28.5392 8.19799 29.2395 8.33768 29.8926 8.60905C30.5457 8.88042 31.1387 9.27812 31.6377 9.77931C32.1366 10.2805 32.5317 10.8753 32.8001 11.5296C33.0686 12.1839 33.2052 12.8848 33.202 13.592C33.202 16.579 30.78 18.986 27.833 18.986ZM45.538 5.486C40.966 5.486 37.498 9.173 37.498 13.561C37.498 18.193 41.12 21.668 45.814 21.668C48.668 21.668 51 20.418 52.565 18.346L50.325 16.7C49.159 18.254 47.625 18.986 45.815 18.986C43.175 18.986 41.058 17.096 40.628 14.567H53.363V13.561C53.363 8.929 50.049 5.486 45.538 5.486ZM40.69 12.129C41.243 9.752 43.176 8.168 45.477 8.168C47.779 8.168 49.712 9.752 50.234 12.129H40.689H40.69ZM62.969 8.533V5.669H61.895C60.177 5.669 58.919 6.461 58.152 7.711V5.791H55.083V21.333H58.183V12.495C58.183 10.088 59.655 8.533 61.68 8.533H62.969Z" fill="black"/>
</svg>
